<?xml version="1.0" encoding="UTF-8"?>
<!DOCTYPE svg PUBLIC "-//W3C//DTD SVG 1.1//EN" "http://www.w3.org/Graphics/SVG/1.1/DTD/svg11.dtd">
<!-- Creator: CorelDRAW X8 -->
<svg xmlns="http://www.w3.org/2000/svg" xml:space="preserve" width="64px" height="64px" version="1.1" style="shape-rendering:geometricPrecision; text-rendering:geometricPrecision; image-rendering:optimizeQuality; fill-rule:evenodd; clip-rule:evenodd"
viewBox="0 0 30 30"
 xmlns:xlink="http://www.w3.org/1999/xlink">
 <defs>
  <style type="text/css">
   <![CDATA[
    .fil0 {fill:url(#id0)}
    .fil1 {fill:url(#id1);fill-rule:nonzero}
   ]]>
  </style>
  <linearGradient id="id0" gradientUnits="userSpaceOnUse" x1="4.40497" y1="4.40523" x2="25.6751" y2="25.6751">
   <stop offset="0" style="stop-opacity:1; stop-color:#EB2F96"/>
   <stop offset="1" style="stop-opacity:1; stop-color:#722ED1"/>
  </linearGradient>
  <linearGradient id="id1" gradientUnits="userSpaceOnUse" x1="5.83599" y1="15.0401" x2="24.2439" y2="15.0401">
   <stop offset="0" style="stop-opacity:1; stop-color:#F9F0FF"/>
   <stop offset="1" style="stop-opacity:1; stop-color:white"/>
  </linearGradient>
 </defs>
 <g id="图层_x0020_1">
  <metadata id="CorelCorpID_0Corel-Layer"/>
  <path class="fil0" d="M7 0l17 0c3,0 6,3 6,7l0 16c0,4 -3,7 -7,7l-16 0c-4,0 -7,-3 -7,-7l0 -16c0,-4 3,-7 7,-7z"/>
  <path class="fil1" d="M10 24l-2 0c-1,0 -2,-1 -2,-2l0 -16 2 0c1,0 2,0 2,1l5 8 0 0 6 -9 1 0c1,0 2,1 2,2l0 16 -1 0c-1,0 -3,-1 -3,-2l0 -9 0 0 -3 5c0,1 -1,1 -2,1l0 0c-1,0 -2,0 -2,-1l-3 -5 0 0 0 11z"/>
 </g>
</svg>
